<svg width="54" height="54" viewBox="0 0 54 54" fill="none" xmlns="http://www.w3.org/2000/svg">
<g clip-path="url(#clip0_447_3542)">
<rect width="53.2587" height="53.3058" rx="6.81711" fill="black"/>
<path d="M26.3019 27.4405C26.9255 27.0981 27.9678 26.3171 28.5804 25.8866L32.2417 23.3304C35.8186 20.8036 39.4958 18.3287 43.1161 15.8575C43.4476 15.6313 43.9674 15.1977 44.2917 15.0352C44.5592 15.0958 44.7108 15.2829 44.8633 15.4997C46.367 17.64 47.5481 20.0579 47.9049 22.661C47.9331 22.7805 47.9554 22.8784 47.9752 22.9994C48.038 23.0154 48.0864 23.0298 48.1416 23.0643C48.22 23.5653 48.2882 25.6876 48.062 26.0612C47.9799 26.1088 47.9445 26.1181 47.9045 26.2062C47.5515 29.3502 45.6329 32.9522 43.1372 34.8902C41.7763 35.9473 39.5906 37.2106 37.9276 37.6597C37.91 37.4961 37.8657 36.977 37.7988 36.8476C37.7499 37.1035 37.7781 37.3924 37.7924 37.6555L37.7726 37.607C37.6543 37.3148 37.6151 36.98 37.4959 36.7548L37.4433 36.7565C37.4079 36.9408 37.4062 37.1305 37.3464 37.3093C37.0431 38.2134 36.1691 39.2005 35.386 39.7272C34.5904 40.2623 33.812 40.3395 32.8841 40.1556C31.2995 39.8415 28.3956 38.3871 27.4908 36.9956C27.1979 36.5452 27.0339 35.9119 27.1521 35.3789C27.2075 35.1293 27.3396 34.9572 27.5591 34.8295C27.8923 34.6346 28.2545 34.4909 28.5853 34.291C29.5203 33.7268 30.4684 32.7641 30.7729 31.6863C30.922 31.1588 30.8993 30.5743 30.6272 30.0907C30.2313 29.3865 29.5068 28.9134 28.7391 28.7122C27.1618 28.2994 24.5433 28.4192 23.1515 29.2364C22.6461 29.5328 22.1634 29.9878 22.0044 30.5697C21.834 31.1929 22.0606 31.8655 22.3785 32.4015C23.4728 34.2471 25.6288 34.5697 26.0085 35.1221C26.2083 35.4131 26.1001 36.113 26.0182 36.4419C25.9274 36.8067 25.7626 37.1297 25.5329 37.4261C24.9022 38.24 23.4011 39.3123 22.5042 39.8423C21.5207 40.4234 20.2994 40.9935 19.1427 40.6903C18.0399 40.401 16.8657 39.7681 16.2708 38.7582C15.8266 38.0042 15.6293 37.1972 15.494 36.3433C15.3993 36.3968 15.3955 36.4677 15.3383 36.5908C15.2841 36.692 15.1773 36.8746 15.1454 36.9754C15.0675 37.2351 15.0426 37.6707 15.017 37.9532C13.3007 37.5754 12.6611 37.139 11.2054 36.2889C7.82914 34.3175 5.67965 31.0057 5.13831 27.1499C4.66129 23.7517 5.53635 20.7235 6.85433 17.6283C7.21333 16.7891 7.67489 16.0249 8.04202 15.205C8.26016 15.284 8.45931 15.3726 8.64911 15.506C10.6467 16.8811 12.5687 18.4747 14.6095 19.7763C18.0009 21.9394 21.2472 24.3036 24.6765 26.4053C25.2269 26.7426 25.7377 27.1145 26.3019 27.4405Z" fill="white"/>
<path d="M43.0817 20.9972L43.144 20.9902C43.4498 21.2017 43.8929 21.9035 44.1204 22.2383C43.9001 22.3253 43.3057 22.749 43.032 22.9082C42.5417 23.1933 41.7831 23.4914 41.3597 23.8102C41.6137 24.2812 41.7405 24.6109 41.8256 25.1477C42.54 29.6554 37.8199 33.0284 34.1886 29.6014C33.4397 28.8631 33.1722 28.304 32.882 27.3033C32.4928 27.3569 32.0682 27.647 31.7671 27.6023C31.2582 27.5268 31.4162 26.9795 31.7763 26.7796C32.9144 26.1475 34.0799 25.5812 35.2307 24.9774C37.8157 23.6213 40.4015 22.1547 43.0817 20.9972Z" fill="black"/>
<path d="M9.40076 21.0128L9.33842 21.0059C9.03262 21.2173 8.58951 21.9191 8.36205 22.254C8.58235 22.341 9.17667 22.7646 9.45046 22.9238C9.94075 23.2089 10.6994 23.507 11.1227 23.8258C10.8687 24.2968 10.7419 24.6266 10.6568 25.1634C9.94244 29.671 14.6625 33.044 18.2938 29.6171C19.0427 28.8787 19.3102 28.3196 19.6004 27.3189C19.9896 27.3725 20.4142 27.6626 20.7154 27.6179C21.2242 27.5424 21.0662 26.9951 20.7061 26.7952C19.568 26.1631 18.4025 25.5968 17.2517 24.993C14.6668 23.6369 12.0809 22.1704 9.40076 21.0128Z" fill="black"/>
<path d="M23.8387 29.848C24.1309 29.8185 24.9969 29.7734 25.0806 30.1179C24.955 30.3624 24.6153 30.4253 24.3469 30.5138C24.0705 30.6188 23.7913 30.7719 23.5163 30.7188C23.3943 30.6492 23.3757 30.5552 23.3193 30.4223C23.4824 30.1242 23.5267 29.9985 23.8387 29.848Z" fill="white"/>
<path d="M15.9746 65.5637C15.8671 64.7859 16.0116 63.877 16.3235 63.1073C16.4484 62.7991 16.6602 62.6883 16.9025 62.5427L17.0618 62.5549C17.8076 59.4147 18.7239 58.0401 20.6311 55.6755C21.0335 55.1765 21.4665 54.8794 21.7087 54.2526C21.8497 54.1355 21.8413 54.1401 22.0001 54.1075C22.2193 54.2479 22.1542 54.584 22.0694 54.8712L22.2098 55.011C23.4206 53.5524 24.3937 52.2713 25.9414 51.4961C27.6323 50.6495 28.9361 50.4928 30.6492 50.4183C30.676 50.3705 30.8203 50.0936 30.7932 50.0665C30.1399 49.4219 29.8407 49.1419 29.5738 48.0597C29.1325 46.8311 28.5275 44.3058 28.4667 42.9055C28.2051 40.9728 28.6653 38.7675 29.5878 37.0183C30.1614 35.9308 30.4783 35.2848 31.29 34.4739C32.3549 33.1488 34.1457 32.3634 35.5095 32.2883C35.898 32.2658 36.2825 32.2883 36.6589 32.3547C37.178 32.4468 37.5084 32.7253 38 32.3483C38.462 32.3402 40.0119 32.6823 40.4209 32.954C41.8302 33.8903 43.3582 35.0312 44.6629 36.1822C45.2223 36.6759 45.6547 37.3161 46.2138 37.8086C47.9419 39.4757 49.5079 40.9627 50.9477 43.0576C51.6355 44.0625 52.2704 45.1276 52.8497 46.2467C53.2306 46.9903 53.5611 47.7572 53.9666 48.4796L59.5417 58.2813L59.7281 58.5513C60.1238 58.9085 60.4354 59.5501 60.7116 59.7545C60.9025 59.9133 60.9091 59.927 60.9967 60.1922L61.1263 60.2455C61.1756 60.6535 61.1321 60.6387 61.451 60.7641C61.7145 60.8833 61.5846 60.9054 61.6203 61.2092C61.9957 61.5845 62.4613 62.2274 62.7312 62.7447C62.9723 62.9537 63.2651 63.4266 63.5208 63.6947C64.0459 64.2441 64.7739 64.7197 65.1592 65.4306L64.4129 65.2348C64.3579 65.5039 64.2961 65.7895 64.2458 66.0579C63.9702 66.0354 63.71 66.0294 63.4321 66.0238C63.6289 66.1394 64.1967 66.3864 64.187 66.6756C64.0033 66.8856 62.1996 67.4922 61.7598 67.6706C61.8769 67.9539 62.0343 68.1443 62.0635 68.4261C63.3263 68.8993 63.6714 69.2671 64.6649 70.1014C66.386 71.5471 67.3179 73.2786 68.6565 75.2215C68.5863 75.4302 68.5116 75.6444 68.4474 75.8545C68.1668 75.7837 67.8609 75.6977 67.5804 75.6377C67.3791 75.8102 67.0568 76.0987 66.8518 76.2474C66.3174 76.1763 65.8163 76.0868 65.269 76.117C65.6342 76.4469 65.9164 77.5594 66.2101 78.1869C66.1781 78.5866 66.0916 79.2718 66.0007 79.6735C66.4742 80.0865 66.1368 81.6233 65.95 82.2424C65.7711 82.9782 65.5529 83.7641 65.3591 84.4998C65.2263 85.2486 65.2111 85.9627 65.1001 86.6854C64.9232 87.8376 64.8643 88.9732 64.7152 90.1134C64.7232 90.3188 64.7442 90.5974 64.7169 90.799C64.6935 91.0813 64.694 91.1967 64.6133 91.4746L64.4809 92.2163L64.4769 92.2811C64.4641 92.5273 64.4649 92.4943 64.4876 92.7099C64.5626 93.4164 64.2699 94.4208 64.0921 95.1206C63.8305 96.2243 63.5608 97.3261 63.284 98.4255L63.0697 99.3531C62.9882 99.8282 62.9082 100.004 63.0669 100.377L62.8502 101.43C62.6407 102.359 62.4203 103.286 62.1894 104.21C62.1407 104.487 62.0061 104.99 61.9356 105.28L61.9086 105.43C61.8752 105.632 61.7783 106.01 61.7694 106.181C61.6993 107.56 61.3905 108.868 61.0607 110.218C60.9778 110.557 60.8672 111.15 60.7473 111.468C60.2278 113.744 59.6068 116.094 59.0572 118.371C58.8857 119.082 58.5507 120.739 58.3502 121.29C57.6178 123.302 56.6696 125.253 55.9409 127.299C55.8928 127.686 55.4772 129.243 55.2772 129.565C55.1157 129.663 55.0785 129.68 54.9659 129.862C54.3536 129.895 55.5782 129.546 54.9659 129.862C56.1395 130.516 53.9686 130.76 55.238 130.398C55.3193 130.259 55.3179 130.23 55.3579 130.071C55.4743 130.046 55.4193 130.038 55.5236 130.119C55.5376 130.285 55.5218 130.34 55.4945 130.507L55.5407 130.568C55.6435 130.491 55.6752 130.357 55.7311 130.213C55.7626 130.284 55.5749 131.211 55.5594 131.483L55.558 131.692C55.6106 131.751 55.6415 131.786 55.6821 131.861L55.6702 131.921C55.6604 132.23 55.6066 132.451 55.5442 132.754L56.3951 133.27C54.741 134.81 51.7221 136.051 49.8321 137.296C50.4465 138.157 50.9341 139.819 51.5836 140.23C49.9407 140.702 48.2879 140.986 46.6448 141.078C45.016 141.315 42.5389 139.996 40.9936 140.076C41.2016 140.662 42.5338 141.826 42.9716 142.344C42.2115 142.849 41.8221 142.661 41.0946 142.507C39.5596 142.182 38.7006 140.766 37.7211 139.441C37.5222 139.172 37.4482 138.743 37.2209 138.454C36.8036 139.145 37.7502 140.714 37.3091 141.178C36.3307 141.239 34.8757 137.626 34.4908 136.627C34.3946 136.852 34.0771 137.713 33.9763 137.79C33.9743 137.67 33.9733 137.55 33.9732 137.429C33.8466 137.344 33.7754 137.319 33.7039 137.161C33.7492 136.959 33.7868 136.749 33.6762 136.597C33.5934 136.735 33.6298 136.723 33.5408 136.763C33.4629 136.368 33.4543 136.244 33.2369 135.954L33.2071 135.915C32.4671 135.758 31.9736 135.701 31.3675 135.174C28.8326 134.339 26.5809 133.008 24.524 131.076C24.2174 130.788 23.7309 130.15 23.366 130.064C23.1968 130.109 23.1401 130.219 23.0021 130.392C24.2906 131.431 25.4421 133.2 26.4467 134.651C26.8458 135.227 27.3036 135.985 27.7615 136.462C27.7516 136.735 27.8201 136.869 27.781 137.034L27.7037 137.037C27.5534 137.173 27.5311 137.183 27.422 137.367C28.3565 138.51 29.0305 139.968 29.3868 141.615C29.4521 141.908 29.4235 141.844 29.6046 141.944C29.5976 142.094 29.5007 142.468 29.4622 142.636C29.1056 142.475 28.8481 142.432 28.4654 142.383C28.4058 142.399 28.4295 142.389 28.3715 142.419L28.1881 142.514C27.4048 142.924 26.0489 142.066 25.1979 142.113C24.7838 142.135 24.3856 142.201 23.9783 142.233C23.2941 142.324 22.5165 142.237 21.8436 142.368C20.6489 142.599 19.7201 142.623 18.5511 142.576C17.6151 142.544 16.6817 142.491 15.7513 142.417C16.3687 142.902 17.033 143.259 17.6474 143.779C17.3707 143.803 17.2107 143.805 16.9378 143.79C16.6599 144.298 15.2146 143.775 14.8078 143.705C14.3953 143.635 13.9767 143.348 13.6814 143.003C12.7715 142.32 12.1569 141.959 11.2784 141.124C8.84684 138.861 7.22528 135.776 5.96446 132.254C4.71117 128.753 3.41422 124.913 4.15246 120.669C4.30984 119.426 4.47123 118.131 5.24458 117.139C7.71982 113.964 10.9139 111.981 13.9321 110.049C13.654 108.081 13.3198 101.973 14.1104 100.144C13.9409 100.158 13.9146 100.084 13.7098 100.17C13.52 100.25 13.4903 100.298 13.3377 100.239C13.2998 100.015 13.4123 99.6624 13.4728 99.4092C13.4345 99.2783 13.5257 98.9703 13.564 98.8172C13.5274 98.7701 13.4958 98.7303 13.4585 98.6853C13.4868 97.2118 14.047 96.8709 14.3122 95.842L14.3364 95.7461L14.4194 95.4201L14.4224 95.2646L14.3647 95.2474C13.772 95.5205 12.4275 96.4232 11.9469 96.9652C11.8517 94.1656 13.7929 92.4264 15.1135 90.379C15.3162 90.0647 16.0099 89.6093 15.9632 89.2299C15.7523 89.112 15.3035 89.0617 15.0516 89.0205C15.4415 88.2575 16.0233 87.5644 16.6854 87.2633C16.9057 86.5516 17.0734 85.7389 17.2965 85.0272C17.7256 83.6588 18.3453 82.1117 18.9508 80.8376C19.4481 79.7913 20.1996 78.7097 20.7162 77.6977C20.5883 77.4697 20.1964 76.977 20.0188 76.7816C19.2429 75.9279 18.8811 74.9426 18.3355 73.8589C17.0467 71.2973 15.8676 68.9321 15.9746 65.5637ZM49.2195 116.657C49.3042 116.755 49.4541 116.945 49.5457 117.013L49.5542 116.993C49.6975 116.878 49.9574 117.055 50.2383 117.027C49.9002 116.851 49.5766 116.787 49.2195 116.657Z" fill="#76F229"/>
<path d="M49.2195 116.657C49.3042 116.755 49.4541 116.945 49.5457 117.013L49.5542 116.993C49.6975 116.878 49.9574 117.055 50.2383 117.027C49.9002 116.851 49.5766 116.787 49.2195 116.657Z" fill="#76F229"/>
<path d="M-26.1969 3.9392C-25.5187 3.5445 -24.6237 3.33328 -23.7938 3.33006C-23.4614 3.32871 -23.2786 3.48274 -23.0521 3.65184L-23.0029 3.80399C-19.817 3.30292 -18.1985 3.62963 -15.2886 4.49831C-14.6746 4.68148 -14.2356 4.96965 -13.5643 4.95606C-13.4025 5.04217 -13.4099 5.03617 -13.3195 5.17084C-13.3661 5.42705 -13.7014 5.49435 -13.9991 5.52481L-14.0751 5.70788C-12.2671 6.27554 -10.7135 6.69034 -9.40935 7.82925C-7.98488 9.07366 -7.34503 10.2215 -6.62582 11.7794C-6.57146 11.7861 -6.26068 11.8147 -6.24589 11.7793C-5.89808 10.9297 -5.75285 10.5464 -4.85379 9.88854C-3.88565 9.01368 -1.78096 7.49518 -0.509687 6.90745C1.17759 5.93182 3.39087 5.52094 5.358 5.71134C6.58101 5.82978 7.29842 5.87806 8.35618 6.32193C9.98536 6.80512 11.3912 8.16522 11.9784 9.3995C12.1466 9.75069 12.2718 10.1153 12.3533 10.489C12.4653 11.0046 12.3332 11.4162 12.8684 11.7284C13.0513 12.153 13.3234 13.718 13.2275 14.1998C12.8971 15.8601 12.4226 17.7079 11.8539 19.3528C11.6099 20.0581 11.1822 20.7015 10.9393 21.4061C10.0542 23.6389 9.27421 25.6533 7.8843 27.7814C7.21649 28.7996 6.47299 29.7917 5.65841 30.7528C5.11565 31.3877 4.53219 31.9848 4.01834 32.6344L-2.92568 41.5164L-3.10448 41.7915C-3.28448 42.2934 -3.75926 42.8254 -3.8433 43.1587C-3.91762 43.3957 -3.92776 43.4071 -4.13968 43.5888L-4.13976 43.7291C-4.49822 43.9295 -4.50102 43.8836 -4.49588 44.2266C-4.506 44.5157 -4.57571 44.4039 -4.84307 44.5522C-5.0474 45.0422 -5.46492 45.7173 -5.84068 46.1635C-5.94241 46.4661 -6.26829 46.9167 -6.4191 47.2553C-6.72757 47.9499 -6.89086 48.8045 -7.40169 49.431L-7.50405 48.6657C-7.77369 48.7169 -8.06113 48.7681 -8.32838 48.8233C-8.41222 48.5596 -8.50538 48.3164 -8.60576 48.0569C-8.63787 48.2831 -8.65068 48.9025 -8.9217 49.0033C-9.18553 48.913 -10.431 47.473 -10.7628 47.1334C-10.9802 47.3494 -11.0966 47.5674 -11.346 47.7014C-11.3039 49.0503 -11.5129 49.5094 -11.907 50.7459C-12.59 52.8882 -13.8368 54.4082 -15.1245 56.385C-15.3441 56.3992 -15.5705 56.4113 -15.7891 56.4316C-15.8301 56.1449 -15.8668 55.829 -15.9179 55.5465C-16.1537 55.4256 -16.5428 55.2367 -16.758 55.1033C-16.8952 54.5814 -17.0026 54.0835 -17.2384 53.5882C-17.4046 54.0515 -18.3259 54.735 -18.7945 55.2451C-19.1761 55.3672 -19.8424 55.5471 -20.2481 55.6154C-20.4501 56.2106 -21.9988 56.4813 -22.6421 56.5434C-23.3901 56.657 -24.1994 56.7531 -24.9531 56.8529C-25.6957 57.0141 -26.3615 57.271 -27.0717 57.4425C-28.2039 57.7159 -29.276 58.0924 -30.3866 58.387C-30.5735 58.4724 -30.823 58.5975 -31.0197 58.6488C-31.2895 58.7342 -31.396 58.7785 -31.6836 58.8092L-32.4194 58.9681L-32.4809 58.989C-32.7133 59.0706 -32.6825 59.0588 -32.8732 59.1617C-33.4978 59.4991 -34.5373 59.6093 -35.2517 59.7102C-36.3713 59.8869 -37.4921 60.0553 -38.6135 60.2162L-39.5523 60.3698C-40.0224 60.4746 -40.2156 60.4674 -40.5002 60.756L-41.5559 60.955C-42.4942 61.1135 -43.4344 61.2611 -44.3762 61.3979C-44.6503 61.4577 -45.1664 61.5241 -45.4613 61.5688L-45.6102 61.6008C-45.8102 61.6467 -46.1965 61.7005 -46.3578 61.757C-47.6591 62.2155 -48.985 62.4257 -50.3586 62.6329C-50.7036 62.6849 -51.2935 62.8074 -51.6331 62.8171C-53.9342 63.1999 -56.3416 63.5164 -58.6551 63.8716C-59.3773 63.9826 -61.0363 64.3013 -61.6217 64.3247C-63.7604 64.4103 -65.9235 64.2726 -68.0909 64.3742C-68.4677 64.4768 -70.0643 64.6827 -70.4379 64.6197C-70.5899 64.5074 -70.62 64.4795 -70.8309 64.4443C-71.0936 63.8898 -70.3064 64.8913 -70.8309 64.4443C-70.9895 65.779 -72.0394 63.8616 -71.2229 64.8996C-71.0637 64.9222 -71.0368 64.9096 -70.8747 64.8863C-70.808 64.9848 -70.8212 64.9307 -70.8565 65.0581C-71.0042 65.1339 -71.0617 65.1405 -71.2258 65.1783L-71.2649 65.2443C-71.1553 65.3105 -71.0191 65.2889 -70.8645 65.2859C-70.9187 65.3422 -71.8466 65.5201 -72.1039 65.609L-72.2976 65.6869C-72.3322 65.7581 -72.3528 65.7999 -72.4066 65.866L-72.4668 65.8778C-72.7556 65.9857 -72.9806 66.0199 -73.2844 66.0772L-73.4383 67.0608C-75.49 66.1137 -77.7831 63.7893 -79.6512 62.5116C-80.2139 63.4073 -81.5651 64.4895 -81.6988 65.2471C-82.7591 63.905 -83.6487 62.4823 -84.3571 60.9956C-85.1949 59.5775 -84.916 56.7833 -85.5767 55.3828C-86.0389 55.7976 -86.6099 57.4732 -86.922 58.0749C-87.6772 57.5627 -87.6518 57.131 -87.7855 56.3989C-88.0676 54.8541 -87.0852 53.5216 -86.232 52.1116C-86.0588 51.8253 -85.6903 51.5939 -85.5099 51.2741C-86.3067 51.1497 -87.3976 52.6216 -87.9941 52.3894C-88.4218 51.5065 -85.6348 48.7883 -84.8575 48.0528C-85.1014 48.0488 -86.0178 48.0815 -86.1279 48.0177C-86.0173 47.9702 -85.9063 47.9235 -85.7949 47.8776C-85.7649 47.7284 -85.7685 47.6528 -85.6491 47.5265C-85.4458 47.4921 -85.2372 47.447 -85.1384 47.2869C-85.2974 47.2625 -85.2723 47.2916 -85.3435 47.2245C-85.0083 47.0027 -84.8963 46.9474 -84.7108 46.6361L-84.686 46.5936C-84.8221 45.8489 -84.9564 45.3703 -84.6996 44.6091C-84.8899 41.945 -84.5144 39.355 -83.5093 36.7172C-83.3595 36.324 -82.9544 35.6313 -83.0137 35.261C-83.12 35.1216 -83.2429 35.1107 -83.4554 35.0487C-83.9262 36.6358 -85.1241 38.3733 -86.0843 39.8543C-86.4656 40.4426 -86.9923 41.1541 -87.2593 41.759C-87.5158 41.8536 -87.6129 41.9675 -87.7808 41.9942L-87.8125 41.9237C-87.9952 41.8361 -88.0135 41.8194 -88.2247 41.7881C-88.9268 43.0873 -90.018 44.2644 -91.4053 45.2194C-91.652 45.3913 -91.6029 45.3402 -91.6271 45.546C-91.768 45.5964 -92.1511 45.6487 -92.3206 45.6767C-92.3077 45.2856 -92.3656 45.0309 -92.4653 44.6578C-92.5029 44.6087 -92.4845 44.6269 -92.5343 44.5846L-92.692 44.4509C-93.3682 43.8811 -93.09 42.3001 -93.456 41.5297C-93.6341 41.1549 -93.8456 40.8109 -94.0302 40.4461C-94.3743 39.8472 -94.5889 39.0941 -94.9649 38.5205C-95.6324 37.5021 -96.0069 36.6511 -96.4075 35.5509C-96.7331 34.672 -97.0386 33.7877 -97.3238 32.8983C-97.537 33.6537 -97.6156 34.4046 -97.8623 35.1705C-97.9894 34.9234 -98.0529 34.7763 -98.1421 34.5178C-98.7174 34.4533 -98.7821 32.9163 -98.8726 32.5134C-98.9643 32.1049 -98.8575 31.6081 -98.6506 31.2037C-98.3652 30.1022 -98.2647 29.3961 -97.8265 28.2659C-96.6575 25.1554 -94.4218 22.4834 -91.6445 19.9792C-88.8838 17.49 -85.8263 14.8317 -81.6236 13.905C-80.4142 13.5787 -79.1558 13.2367 -77.9453 13.5763C-74.0708 14.6634 -71.0258 16.8686 -68.094 18.9302C-66.3797 17.9255 -60.8604 15.2981 -58.87 15.3361C-58.947 15.1844 -58.8889 15.1322 -59.0463 14.9752C-59.1921 14.8297 -59.2479 14.8204 -59.2508 14.6566C-59.0589 14.5368 -58.6898 14.507 -58.4328 14.467C-58.3264 14.3817 -58.007 14.3494 -57.851 14.3267C-57.8213 14.2749 -57.7965 14.2306 -57.7691 14.179C-56.3963 13.6459 -55.8685 14.0353 -54.8167 13.8905L-54.7189 13.8765L-54.386 13.8296L-54.2411 13.7734L-54.2471 13.7134C-54.7246 13.2682 -56.0694 12.3659 -56.7529 12.1265C-54.2012 10.9759 -51.8565 12.1133 -49.4626 12.5592C-49.0951 12.6276 -48.4108 13.0971 -48.0778 12.9099C-48.0489 12.6698 -48.1728 12.2352 -48.2303 11.9863C-47.377 12.0578 -46.5154 12.3335 -45.9858 12.8323C-45.2442 12.7662 -44.4293 12.6131 -43.6867 12.5496C-42.2589 12.4275 -40.5935 12.4142 -39.1859 12.4914C-38.0299 12.5548 -36.7449 12.8402 -35.6133 12.9345C-35.4511 12.7295 -35.1444 12.1797 -35.0312 11.941C-34.5366 10.8986 -33.7632 10.1897 -32.9685 9.27328C-31.0899 7.10777 -29.3512 5.11842 -26.1969 3.9392ZM-60.8054 54.1119C-60.8642 54.2277 -60.9826 54.4384 -61.0106 54.5491L-60.9889 54.5494C-60.8285 54.6385 -60.8932 54.9462 -60.7612 55.196C-60.7262 54.8158 -60.7905 54.4921 -60.8054 54.1119Z" fill="#76F229"/>
<path d="M-60.8054 54.1119C-60.8642 54.2277 -60.9826 54.4384 -61.0106 54.5491L-60.9889 54.5494C-60.8285 54.6385 -60.8932 54.9462 -60.7612 55.196C-60.7262 54.8158 -60.7905 54.4921 -60.8054 54.1119Z" fill="#76F229"/>
</g>
<defs>
<clipPath id="clip0_447_3542">
<rect width="53.2587" height="53.3058" rx="6.81711" fill="white"/>
</clipPath>
</defs>
</svg>
