<svg width="214" height="127" viewBox="0 0 214 127" fill="none" xmlns="http://www.w3.org/2000/svg">
    <path d="M34.9828 43.7698C41.9843 42.7766 48.3046 47.3891 51.2648 53.4843C53.8756 47.373 60.291 43.3902 66.9191 43.7017C70.8912 43.8655 74.6266 45.6346 77.2701 48.6038C80.3353 51.9985 81.4566 56.318 81.1299 60.8023C80.418 70.5744 73.5707 78.2634 66.6917 84.452C62.9669 87.5857 59.1646 90.4818 54.9953 93.0006C53.8738 93.6782 52.4955 94.6159 51.2807 95.0584C48.5418 94.109 41.0054 88.6917 38.5989 86.7609C30.805 80.4243 22.666 72.2331 21.457 61.7808C20.4123 52.7486 25.5885 44.752 34.9828 43.7698Z" fill="black"/>
    <path d="M175.224 43.6494C178.369 43.526 181.843 44.7129 184.388 46.53C187.56 48.8129 189.687 52.2685 190.297 56.1282C191.438 63.0736 188.879 69.5169 184.883 75.0913C179.713 82.3043 172.303 87.9795 164.882 92.6836C163.86 93.3307 162.059 94.7794 160.844 94.9021C158.899 95.0984 148.591 87.2632 146.493 85.4983C141.375 81.3254 136.463 76.0493 133.413 70.1426C129.111 61.8079 129.534 50.1277 138.853 45.4268C147.591 41.0191 156.411 45.1284 160.709 53.533C163.699 47.2359 168.358 44.1647 175.224 43.6494Z" fill="black"/>
    <path d="M157.388 18.604C169.48 18.5581 180.701 21.7229 190.225 29.434C191.29 30.2963 194.884 32.433 192.928 34.0398C191.678 34.6121 190.321 33.3771 189.374 32.6569C183.628 28.2878 177.845 26.1015 171.026 23.9487C159.313 21.31 147.857 22.481 136.958 27.593C135.753 28.1579 131.973 31.1124 131.332 27.7893C131.265 27.4449 131.705 26.7263 131.996 26.5107C138.421 21.7511 149.814 18.6054 157.388 18.604Z" fill="black" fill-opacity="0.988235"/>
    <path d="M51.094 18.6037C60.9483 18.4106 70.1516 20.5618 78.6854 25.5315C79.7715 26.164 81.1646 27.3219 80.249 28.6874C79.2735 30.1237 77.4479 28.9108 76.358 28.3284C66.8936 23.2711 54.6162 21.2455 44.116 23.3338C41.1423 23.5202 33.1498 26.4396 30.2616 27.9381C28.1312 29.0884 26.0437 30.2979 24.01 31.6071C23.148 32.1621 20.6603 34.1927 19.803 34.2506C19.433 34.2757 19.0686 34.1483 18.7946 33.8981C17.2545 32.489 20.7614 30.1679 21.7488 29.371C28.7768 23.6999 37.7597 20.1315 46.6934 18.9894C48.1519 18.8029 49.6224 18.5964 51.094 18.6037Z" fill="black" fill-opacity="0.988235"/>
</svg>
