<svg width="214" height="127" viewBox="0 0 214 127" fill="none" xmlns="http://www.w3.org/2000/svg">
    <path d="M169.298 41.7361C176.376 41.5363 185.718 43.2942 192.154 46.4438C193.471 47.0881 194.264 47.7242 194.689 49.1171C194.21 50.767 193.785 51.3626 191.881 51.1C188.35 50.6128 184.799 50.33 181.27 49.9963C187.124 62.8542 181.613 78.9013 168.02 83.8102C163.295 85.5165 157.047 84.9775 152.579 82.7579C144.973 79.5631 139.811 71.8341 138.833 63.8431C138.788 63.48 138.757 63.3087 138.473 63.1028C137.425 63.368 132.728 68.53 131.395 69.1553C130.844 69.4139 130.677 69.466 130.078 69.6366C129.268 69.3309 128.261 68.7297 128.364 67.7366C128.711 64.3541 131.954 60.2845 134.146 57.8472C143.409 47.5424 155.584 42.5018 169.298 41.7361Z" fill="black"/>
    <path d="M40.0814 41.851C45.4218 41.5662 52.5878 42.4636 57.6712 44.1431C61.704 45.4589 65.5606 47.2627 69.1556 49.5144C75.0194 53.2169 80.6997 58.9242 84.0053 65.0634C85.0256 66.9583 85.2209 68.6132 83.0881 69.6635C80.6926 69.0595 79.2723 67.047 77.5077 65.458C76.4846 64.5368 75.3344 63.6219 74.4028 62.6215C74.3586 63.2942 74.3445 63.7858 74.211 64.4524C72.6215 72.3923 69.874 76.8029 63.2516 81.3297C57.4444 85.1515 49.5899 86.0866 43.2177 83.1321C37.6604 80.5449 33.3571 75.8579 31.2528 70.1005C28.8589 63.491 28.9825 56.2631 31.9859 49.8757C28.6628 50.3914 25.0904 50.5425 21.7433 51.0758C21.0537 51.1364 19.5385 51.2809 19.0371 50.6973C16.7161 47.9964 21.4631 46.1281 23.0141 45.5079C28.5215 43.3057 34.2203 42.2026 40.0814 41.851Z" fill="black"/>
</svg>
