<svg width="214" height="127" viewBox="0 0 214 127" fill="none" xmlns="http://www.w3.org/2000/svg">
    <path d="M105.023 61.0141C108.099 59.33 113.239 55.4891 116.26 53.3715L134.317 40.7992C151.958 28.3713 170.093 16.1988 187.947 4.04441C189.582 2.93215 192.145 0.799302 193.745 0C195.064 0.298442 195.812 1.21865 196.564 2.28487C203.98 12.8114 209.805 24.7039 211.564 37.5066C211.703 38.0948 211.813 38.576 211.911 39.1712C212.221 39.25 212.459 39.3205 212.732 39.4906C213.118 41.9544 213.454 52.3926 212.339 54.2302C211.934 54.4645 211.759 54.5101 211.562 54.9436C209.821 70.407 200.359 88.1227 188.051 97.6546C181.339 102.854 170.56 109.068 162.359 111.276C162.271 110.472 162.053 107.919 161.723 107.282C161.482 108.541 161.621 109.961 161.692 111.256L161.594 111.017C161.011 109.58 160.817 107.933 160.229 106.826L159.97 106.834C159.795 107.74 159.787 108.674 159.492 109.553C157.996 113.999 153.686 118.855 149.824 121.445C145.9 124.077 142.061 124.456 137.485 123.552C129.67 122.007 115.349 114.854 110.887 108.01C109.442 105.795 108.633 102.68 109.216 100.058C109.489 98.8305 110.141 97.9844 111.223 97.3559C112.867 96.3978 114.653 95.6906 116.284 94.7075C120.895 91.9326 125.572 87.1977 127.073 81.8967C127.809 79.3022 127.697 76.4277 126.355 74.0489C124.402 70.5854 120.829 68.2584 117.043 67.2691C109.264 65.2387 96.3501 65.8277 89.4864 69.847C86.9937 71.305 84.6133 73.5428 83.8289 76.4049C82.9888 79.4702 84.1064 82.7781 85.6739 85.4141C91.0708 94.4918 101.704 96.0784 103.576 98.7953C104.562 100.226 104.028 103.669 103.624 105.287C103.177 107.081 102.364 108.669 101.231 110.127C98.1204 114.13 90.7175 119.404 86.2938 122.011C81.4435 124.869 75.4203 127.673 69.7158 126.182C64.2774 124.759 58.486 121.646 55.5524 116.679C53.3617 112.971 52.3885 109.001 51.7215 104.801C51.2545 105.065 51.2354 105.413 50.9537 106.019C50.6861 106.517 50.1593 107.415 50.0023 107.91C49.618 109.188 49.4952 111.33 49.3691 112.72C40.9047 110.862 37.7503 108.715 30.5711 104.534C13.9201 94.8382 3.31937 78.5493 0.649599 59.5851C-1.70296 42.8711 2.61266 27.9776 9.11258 12.7542C10.8831 8.62661 13.1594 4.86778 14.97 0.835594C16.0458 1.22384 17.028 1.65957 17.964 2.31577C27.8155 9.07914 37.2943 16.9168 47.3591 23.3189C64.0848 33.9577 80.0949 45.5859 97.0072 55.9225C99.7216 57.5817 102.241 59.4109 105.023 61.0141Z" fill="white"/>
</svg>
