<svg width="214" height="127" viewBox="0 0 214 127" fill="none" xmlns="http://www.w3.org/2000/svg">
    <path d="M187.781 29.3086L188.088 29.2744C189.596 30.3143 191.781 33.766 192.903 35.4131C191.817 35.841 188.886 37.9247 187.535 38.7078C185.117 40.1098 181.376 41.5761 179.289 43.144C180.541 45.4606 181.166 47.0824 181.586 49.7226C185.109 71.8931 161.831 88.4827 143.922 71.6277C140.229 67.9962 138.91 65.2461 137.478 60.3246C135.559 60.588 133.465 62.0149 131.98 61.7951C129.47 61.4238 130.249 58.7318 132.025 57.7488C137.638 54.6399 143.386 51.8546 149.061 48.8847C161.81 42.2148 174.563 35.0018 187.781 29.3086Z" fill="black"/>
    <path d="M21.6701 29.3975L21.3627 29.3633C19.8545 30.4032 17.6692 33.8548 16.5475 35.502C17.6339 35.9298 20.565 38.0135 21.9152 38.7967C24.3332 40.1987 28.0745 41.6649 30.1622 43.2328C28.9095 45.5494 28.2843 47.1713 27.8647 49.8114C24.3415 71.982 47.6199 88.5716 65.5285 71.7165C69.222 68.085 70.5411 65.335 71.9723 60.4135C73.8918 60.6769 75.9857 62.1038 77.471 61.8839C79.9804 61.5127 79.2014 58.8207 77.4253 57.8376C71.8124 54.7288 66.0644 51.9435 60.3892 48.9736C47.6407 42.3037 34.8881 35.0907 21.6701 29.3975Z" fill="black"/>
</svg>
