<svg width="214" height="127" viewBox="0 0 214 127" fill="none" xmlns="http://www.w3.org/2000/svg">
    <path d="M122.316 16.7363C124.953 17.0825 126.551 18.6686 128.652 20.0768C131.026 21.6673 133.381 23.3607 135.783 24.8995C142.699 29.2664 149.882 33.1947 157.29 36.6612C165.628 40.6 174.224 43.969 183.019 46.7453C185.55 47.5533 188.1 48.3034 190.666 48.9953C192.637 49.525 194.603 50.0731 196.568 50.622C199.343 51.3968 202.61 54.502 198.453 56.2539C197.77 56.5425 197.041 56.7078 196.3 56.7424C194.111 56.8555 183.946 55.7638 182.056 55.009C182.195 57.9694 181.487 61.0134 180.59 63.8115C175.636 77.1777 160.583 82.9461 148.405 75.0159C142.893 71.4288 139.056 65.7746 137.76 59.3276C136.268 52.2131 138.203 45.3035 142.106 39.3431C141.549 39.0648 141.012 38.7336 140.481 38.4088C135.398 35.2962 121.32 26.2538 120.03 20.6305C119.82 19.7192 119.85 18.5054 120.383 17.7C120.823 17.0342 121.58 16.8751 122.316 16.7363Z" fill="black"/>
    <path d="M90.5692 16.7363C91.39 16.7631 92.0458 16.9895 92.5888 17.6448C94.5066 19.9593 91.7117 23.6849 90.004 25.3821C85.8588 29.5019 80.9203 33.0483 76.0685 36.2971C73.8222 37.8013 71.3149 39.1283 69.194 40.8039C69.3889 41.0632 69.6735 41.5 69.8322 41.7959C72.9173 47.5492 74.088 53.9161 72.4156 60.2776C70.6936 66.8282 66.8773 72.1443 61.0555 75.5774C56.0498 78.5291 50.0388 79.3504 44.4381 77.8474C40.4155 76.7679 36.1275 73.7927 33.5678 70.5253C32.4672 69.1205 31.6985 67.7563 30.8159 66.2114C29.2688 63.6236 28.3935 58.4928 28.3287 55.5268C24.0686 55.9246 16.5748 58.2013 13.0869 55.3354L12.6694 54.0774C13.0496 52.6471 13.7052 51.7783 15.1123 51.1897C17.6253 50.1386 20.3557 49.5927 22.9861 48.8849C25.8787 48.0797 28.7547 47.2158 31.6122 46.2937C43.1543 42.4954 54.352 37.721 65.0839 32.022C69.1827 29.8192 73.2083 27.4827 77.1542 25.0165C79.5219 23.5229 81.8734 21.796 84.1994 20.2255C86.5157 18.6615 87.7662 17.382 90.5692 16.7363Z" fill="black"/>
</svg>
