<svg width="220" height="46" viewBox="0 0 220 46" fill="none" xmlns="http://www.w3.org/2000/svg">
    <path d="M116.726 22.7337L127.13 33.2637H117.212L111.956 27.7377L106.718 33.2637H96.8L107.186 22.7337V22.7157L96.8 12.1677H106.718L111.956 17.6937L117.212 12.1677H127.13L116.726 22.7157H116.744L116.726 22.7337Z" fill="black"/>
    <path d="M43.8076 40.0391V32.5292H81.3567V40.0391H43.8076Z" fill="black"/>
    <path d="M81.3567 9.99974H43.8076V2.48994H81.3567V9.99974Z" fill="black"/>
    <rect x="59.4531" y="12.1377" width="7.30125" height="18.2531" fill="black"/>
    <path d="M7.53889 32.5398H19.969L27.2945 32.5109L37.5491 32.5398V40.0381H7.53889H0L0 2.51772H7.53889L37.5491 2.48896V9.98722L27.2945 9.9871L19.969 10.016H7.53889V32.5398Z" fill="black"/>
    <rect x="19.8179" y="12.1377" width="7.30125" height="18.2531" fill="black"/>
    <path d="M180.116 22.0629C181.235 21.454 183.106 20.065 184.205 19.2994L190.776 14.7532C197.196 10.2592 203.796 5.85755 210.293 1.46247C210.888 1.06028 211.821 0.289031 212.403 0C212.883 0.107918 213.155 0.440668 213.429 0.826217C216.128 4.63266 218.247 8.93302 218.888 13.5625C218.938 13.7752 218.978 13.9492 219.014 14.1644C219.126 14.1929 218.915 14.2184 219.014 14.2799C219.154 15.1709 219.277 18.9454 218.871 19.6098C218.724 19.6946 218.959 19.7111 218.887 19.8678C218.253 25.4594 214.81 31.8655 210.331 35.3123C207.888 37.1924 203.966 39.4392 200.981 40.2379C200.949 39.947 200.87 39.0238 200.75 38.7935C200.662 39.2488 200.713 39.7625 200.738 40.2304L200.703 40.1442C200.49 39.6245 200.42 39.029 200.206 38.6285L200.112 38.6316C200.048 38.9593 200.045 39.2968 199.938 39.6147C199.394 41.2226 197.825 42.9783 196.42 43.9149C194.992 44.8666 193.595 45.0039 191.929 44.6769C189.085 44.1182 183.874 41.5316 182.25 39.0568C181.724 38.2558 181.43 37.1294 181.642 36.1815C181.741 35.7375 181.978 35.4315 182.372 35.2043C182.97 34.8578 183.62 34.6021 184.214 34.2466C185.892 33.2432 187.594 31.531 188.14 29.6142C188.408 28.676 188.367 27.6365 187.879 26.7763C187.168 25.5239 185.868 24.6825 184.49 24.3248C181.659 23.5906 176.96 23.8035 174.462 25.2569C173.555 25.7842 172.688 26.5934 172.403 27.6283C172.097 28.7367 172.504 29.9329 173.074 30.8861C175.038 34.1686 178.908 34.7423 179.589 35.7247C179.948 36.2422 179.754 37.4871 179.607 38.0721C179.444 38.7208 179.148 39.2953 178.736 39.8225C177.604 41.2699 174.91 43.177 173.3 44.1197C171.535 45.1531 169.343 46.167 167.267 45.6278C165.288 45.1134 163.18 43.9877 162.113 42.1916C161.316 40.8506 160.961 39.4152 160.719 37.8966C160.549 37.9918 160.542 38.1178 160.439 38.3368C160.342 38.5168 160.15 38.8415 160.093 39.0208C159.953 39.4827 159.908 40.2574 159.863 40.7599C156.782 40.088 155.634 39.3118 153.022 37.7999C146.962 34.2938 143.104 28.4037 142.133 21.5462C141.277 15.5024 142.847 10.1168 145.213 4.61197C145.857 3.11942 146.685 1.76021 147.344 0.302154C147.736 0.442545 148.093 0.600106 148.434 0.83739C152.019 3.28305 155.468 6.11718 159.131 8.4322C165.218 12.2792 171.044 16.484 177.199 20.2218C178.187 20.8218 179.103 21.4832 180.116 22.0629Z" fill="black"/>
    <path d="M210.232 10.5983L210.344 10.5859C210.893 10.962 211.688 12.2101 212.097 12.8057C211.701 12.9604 210.634 13.7139 210.143 13.9971C209.263 14.504 207.902 15.0343 207.142 15.6012C207.598 16.4389 207.825 17.0254 207.978 17.9801C209.26 25.997 200.789 31.9959 194.272 25.901C192.928 24.5879 192.447 23.5934 191.927 21.8138C191.228 21.9091 190.466 22.425 189.926 22.3455C189.012 22.2113 189.296 21.2378 189.942 20.8824C191.985 19.7582 194.077 18.751 196.142 17.6771C200.781 15.2652 205.422 12.657 210.232 10.5983Z" fill="white"/>
    <path d="M149.782 10.6296L149.67 10.6172C149.122 10.9932 148.326 12.2414 147.918 12.837C148.313 12.9917 149.38 13.7452 149.872 14.0283C150.751 14.5353 152.113 15.0655 152.873 15.6325C152.417 16.4702 152.189 17.0566 152.037 18.0113C150.755 26.0283 159.226 32.0271 165.743 25.9323C167.087 24.6191 167.567 23.6247 168.088 21.8451C168.787 21.9403 169.549 22.4563 170.089 22.3768C171.002 22.2425 170.719 21.2691 170.072 20.9136C168.03 19.7894 165.938 18.7823 163.873 17.7083C159.233 15.2965 154.593 12.6882 149.782 10.6296Z" fill="white"/>
    <path d="M175.696 26.3439C176.22 26.2915 177.774 26.2112 177.925 26.8239C177.699 27.2589 177.09 27.3706 176.608 27.5281C176.112 27.7148 175.611 27.9871 175.117 27.8926C174.898 27.7688 174.865 27.6016 174.764 27.3654C175.056 26.8352 175.136 26.6117 175.696 26.3439Z" fill="black"/>
</svg>
