<svg width="317" height="142" viewBox="0 0 317 142" fill="none" xmlns="http://www.w3.org/2000/svg">
    <g clip-path="url(#clip0_447_3476)">
        <rect x="-52.8486" y="18.0478" width="123.89" height="124" rx="15.858" transform="rotate(-2.5625 -52.8486 18.0478)" fill="black"/>
        <path d="M119.614 129.491C120.243 131.183 120.423 133.316 120.184 135.23C120.089 135.996 119.711 136.367 119.289 136.834L118.954 136.897C119.066 144.405 117.901 148.029 115.214 154.451C114.648 155.806 113.912 156.724 113.742 158.275C113.513 158.62 113.528 158.605 113.218 158.769C112.694 158.578 112.651 157.783 112.675 157.087L112.313 156.851C110.585 160.833 109.254 164.278 106.474 166.91C103.436 169.786 100.834 170.884 97.3463 172.031C97.3162 172.154 97.1642 172.861 97.2343 172.907C98.9177 173.987 99.6805 174.447 100.798 176.735C102.351 179.254 104.921 184.603 105.781 187.726C107.334 191.935 107.543 197.171 106.562 201.643C105.951 204.423 105.638 206.061 104.392 208.354C102.894 211.951 99.6195 214.745 96.851 215.694C96.063 215.966 95.2594 216.135 94.4497 216.201C93.3326 216.29 92.5063 215.85 91.6918 216.981C90.745 217.264 87.3743 217.378 86.3897 216.999C82.9969 215.693 79.2523 213.993 75.9622 212.143C74.5515 211.349 73.3252 210.152 71.9158 209.361C67.4832 206.589 63.4788 204.131 59.4154 200.229C57.4721 198.356 55.6061 196.317 53.8262 194.124C52.6518 192.665 51.5691 191.124 50.3552 189.727L33.7344 170.808L33.2088 170.306C32.2068 169.726 31.2287 168.458 30.5528 168.155C30.0764 167.906 30.0556 167.878 29.7361 167.33L29.4413 167.284C29.1258 166.392 29.2231 166.401 28.5006 166.3C27.8957 166.182 28.1515 166.058 27.9186 165.393C26.9488 164.762 25.6529 163.578 24.8259 162.565C24.2198 162.232 23.3688 161.333 22.7016 160.874C21.3324 159.935 19.5839 159.279 18.4177 157.896L20.057 157.911C20.0291 157.272 20.0064 156.593 19.9692 155.959C20.5485 155.852 21.0873 155.717 21.6624 155.571C21.1965 155.423 19.8979 155.19 19.7661 154.532C20.0341 153.954 23.4295 151.555 24.2416 150.902C23.8518 150.33 23.4278 149.99 23.2197 149.371C20.3716 149.026 19.4681 148.394 16.9849 147.08C12.6829 144.803 9.8557 141.431 6.08035 137.814C6.11541 137.304 6.15685 136.778 6.17883 136.267C6.79375 136.267 7.46866 136.286 8.07773 136.261C8.40163 135.757 8.91379 134.922 9.25783 134.47C10.3956 134.324 11.4741 134.24 12.5852 133.859C11.6602 133.324 10.4956 130.976 9.56163 129.729C9.41783 128.809 9.23641 127.215 9.21278 126.257C8.02116 125.596 7.90969 121.938 7.96937 120.435C7.95169 118.673 7.98872 116.776 8.00179 115.006C7.88222 113.242 7.53889 111.623 7.38826 109.93C7.1481 107.23 6.67348 104.635 6.38235 101.979C6.25812 101.52 6.06877 100.904 6.0192 100.434C5.91922 99.7839 5.85773 99.5239 5.87808 98.851L5.76148 97.1029L5.73569 96.9544C5.63286 96.3919 5.64856 96.4668 5.48868 95.9935C4.96379 94.4432 5.03939 92.0109 5.03841 90.3311C4.99792 87.6925 4.97517 85.0538 4.96832 82.4162L4.92274 80.2021C4.84144 79.084 4.91363 78.6411 4.39117 77.8904L4.28478 75.3918C4.22891 73.177 4.19639 70.9615 4.18723 68.7459C4.14238 68.0944 4.15546 66.883 4.14849 66.1888L4.12532 65.835C4.08783 65.3589 4.089 64.4508 4.0178 64.0606C3.43856 60.9108 3.3885 57.7857 3.35884 54.5515C3.35163 53.7393 3.26842 52.3395 3.34837 51.5534C3.22379 46.1238 3.26987 40.4711 3.20677 35.0221C3.18689 33.3209 3.00729 29.3924 3.13105 28.0355C3.58314 23.0778 4.51201 18.137 4.93908 13.1079C4.8347 12.2056 4.87373 8.45799 5.11668 7.61748C5.39763 7.30411 5.46525 7.24381 5.60159 6.76909C6.84494 6.34542 4.50671 7.83165 5.60159 6.76909C2.84228 5.96603 7.18388 4.17463 4.76023 5.71643C4.66571 6.07583 4.68413 6.1421 4.68516 6.52334C4.45835 6.64472 4.57598 6.63209 4.31868 6.50885C4.20287 6.14349 4.20619 6.00892 4.17516 5.61829L4.04788 5.50658C3.87638 5.73739 3.88146 6.05842 3.84206 6.41577C3.7397 6.27229 3.64008 4.0753 3.52917 3.4531L3.42256 2.98095C3.28321 2.87781 3.2013 2.81668 3.07835 2.67108L3.07132 2.52842C2.92971 1.82738 2.92439 1.29745 2.8938 0.578515L0.871233 -0.0988514C3.46881 -4.51743 9.0334 -9.04079 12.2718 -12.9276C10.555 -14.5184 8.67914 -17.9877 7.12597 -18.5445C10.2608 -20.5483 13.5149 -22.1324 16.8499 -23.2776C20.079 -24.7436 25.871 -23.1846 29.0106 -24.2482C28.2752 -25.4497 24.9211 -27.3152 23.7484 -28.2318C25.0485 -29.8046 25.9486 -29.6046 27.5273 -29.6726C30.8583 -29.8162 33.3694 -27.115 36.0815 -24.6859C36.6323 -24.1928 37.0097 -23.2676 37.629 -22.7469C38.1259 -24.5428 35.3539 -27.5399 36.0184 -28.8387C38.001 -29.535 42.8919 -22.2196 44.2085 -20.1868C44.2889 -20.7476 44.4909 -22.8706 44.6577 -23.1036C44.7249 -22.8331 44.7902 -22.562 44.8537 -22.29C45.1586 -22.1718 45.3186 -22.1554 45.5489 -21.8388C45.5612 -21.3589 45.5942 -20.8632 45.9016 -20.5832C45.9999 -20.9416 45.9312 -20.8933 46.0934 -21.0354C46.4607 -20.19 46.5438 -19.9137 47.1435 -19.384L47.2255 -19.3129C48.8313 -19.3825 49.8774 -19.5352 51.4016 -18.6936C57.0589 -18.2586 62.3931 -16.5437 67.6417 -13.362C68.424 -12.8878 69.7605 -11.7269 70.5567 -11.742C70.8812 -11.9415 70.9404 -12.2213 71.1336 -12.6907C67.936 -14.2962 64.6372 -17.6273 61.8073 -20.326C60.6833 -21.398 59.3431 -22.8452 58.1502 -23.6591C58.0272 -24.2813 57.8163 -24.5424 57.8099 -24.9381L57.9676 -24.9882C58.2058 -25.3806 58.2461 -25.4173 58.3743 -25.8938C55.8506 -27.9381 53.6983 -30.8394 52.1005 -34.3503C51.812 -34.9752 51.9049 -34.8454 51.4794 -34.9686C51.4152 -35.3099 51.4184 -36.21 51.4097 -36.61C52.228 -36.4519 52.7808 -36.5018 53.5946 -36.6094C53.7088 -36.6798 53.6653 -36.6435 53.7689 -36.7444L54.0966 -37.064C55.4943 -38.4358 58.736 -37.2761 60.4639 -37.8671C61.3045 -38.1547 62.0902 -38.5295 62.9117 -38.8353C64.2725 -39.432 65.9193 -39.6798 67.2364 -40.3583C69.5747 -41.563 71.4745 -42.147 73.9059 -42.7097C75.8499 -43.172 77.7994 -43.5862 79.7535 -43.9519C78.2284 -44.691 76.6729 -45.1184 75.1356 -45.9382C75.6927 -46.1502 76.0206 -46.2482 76.5906 -46.3691C76.8962 -47.6741 80.1466 -47.3191 81.0204 -47.3956C81.9065 -47.4731 82.9192 -47.064 83.7083 -46.4544C85.9398 -45.4354 87.3945 -44.9722 89.6412 -43.5916C95.835 -39.8771 100.792 -33.8476 105.236 -26.6247C109.653 -19.4452 114.338 -11.5259 115.044 -1.53486C115.373 1.35984 115.72 4.37252 114.648 7.0514C111.217 15.6256 105.681 21.9211 100.48 28.0028C102.086 32.2838 105.979 45.8671 105.31 50.4426C105.652 50.3148 105.745 50.4658 106.121 50.1545C106.47 49.8661 106.506 49.7406 106.851 49.7877C107.047 50.2693 107 51.1297 107.008 51.7354C107.156 52.0086 107.13 52.7552 107.131 53.1224C107.231 53.2078 107.317 53.2794 107.418 53.3596C108.132 56.6986 107.158 57.7876 107.152 60.2593L107.152 60.4895L107.152 61.2721L107.228 61.6244L107.355 61.6303C108.432 60.6758 110.727 57.8718 111.432 56.3749C113.097 62.6339 110.013 67.6654 108.368 73.0371C108.115 73.8618 106.926 75.285 107.221 76.114C107.718 76.2594 108.668 76.1163 109.208 76.0654C108.806 78.0088 107.971 79.9042 106.766 80.9615C106.686 82.6925 106.767 84.6211 106.681 86.3535C106.516 89.6846 106.051 93.5277 105.473 96.7469C104.998 99.3906 104.018 102.259 103.485 104.837C103.869 105.278 104.934 106.165 105.402 106.504C107.447 107.986 108.709 110.001 110.401 112.133C114.399 117.173 118.067 121.834 119.614 129.491ZM24.361 33.266C24.1349 33.0925 23.7269 32.7506 23.5025 32.6497L23.4955 32.6997C23.2606 33.04 22.6329 32.7901 22.0688 33.0123C22.8577 33.2177 23.5573 33.1757 24.361 33.266Z" fill="#29A5F2"/>
        <path d="M24.361 33.266C24.1349 33.0925 23.7269 32.7506 23.5025 32.6497L23.4955 32.6997C23.2606 33.04 22.6329 32.7901 22.0688 33.0123C22.8577 33.2177 23.5573 33.1757 24.361 33.266Z" fill="#29A5F2"/>
        <path d="M11.1263 79.0735C12.5401 78.2129 14.8809 76.2897 16.2598 75.2255L24.5023 68.9045C32.5518 62.6604 40.8397 56.5267 48.9959 50.4073C49.7427 49.8473 50.9055 48.7855 51.6423 48.3741C52.2702 48.4873 52.642 48.9064 53.0189 49.3943C56.736 54.2115 59.7321 59.7077 60.8319 65.7198C60.91 65.9947 60.972 66.2198 61.0306 66.4989C61.1781 66.5296 61.2922 66.5579 61.424 66.6325C61.6582 67.7885 62.0375 72.7134 61.5507 73.6051C61.3648 73.7244 61.2835 73.7496 61.1997 73.9586C60.7064 81.3015 56.6224 89.8715 51.0243 94.6348C47.9716 97.233 43.0238 100.396 39.206 101.613C39.1479 101.234 38.9911 100.033 38.822 99.7387C38.7351 100.339 38.8307 101.007 38.8913 101.617L38.8403 101.506C38.5348 100.84 38.409 100.066 38.1086 99.5547L37.9864 99.5641C37.9233 99.996 37.9391 100.437 37.8187 100.859C37.208 102.991 35.2796 105.376 33.5147 106.682C31.7213 108.008 29.9204 108.268 27.7449 107.937C24.0298 107.372 17.1303 104.294 14.883 101.155C14.1556 100.139 13.7085 98.6839 13.9278 97.433C14.0305 96.8471 14.3196 96.4336 14.8164 96.1138C15.5705 95.6264 16.3972 95.2546 17.1452 94.7557C19.2592 93.3474 21.3625 91.0116 21.9581 88.4753C22.2498 87.2339 22.1361 85.8781 21.4535 84.7824C20.4601 83.1871 18.7273 82.163 16.9224 81.7754C13.2141 80.9801 7.14132 81.5308 3.99211 83.5746C2.84833 84.316 1.774 85.4236 1.46491 86.7924C1.13388 88.2584 1.73045 89.7978 2.52482 91.0103C5.25981 95.1855 10.3038 95.7109 11.2434 96.9551C11.7381 97.6105 11.5593 99.2484 11.4032 100.021C11.2303 100.878 10.8808 101.646 10.378 102.359C8.99687 104.316 5.6201 106.964 3.59078 108.289C1.36571 109.741 -1.41316 111.193 -4.13269 110.609C-6.72539 110.051 -9.52013 108.703 -11.0075 106.418C-12.1182 104.712 -12.6607 102.857 -13.0638 100.887C-13.2783 101.021 -13.2799 101.186 -13.3999 101.478C-13.5154 101.719 -13.7447 102.154 -13.8082 102.392C-13.9623 103.003 -13.9748 104.018 -14.0048 104.677C-18.0326 103.978 -19.5644 103.03 -23.0357 101.206C-31.0867 96.9762 -36.4263 89.5034 -38.0853 80.5994C-39.5473 72.7519 -37.8287 65.6239 -35.0878 58.2939C-34.3408 56.3064 -33.3476 54.4823 -32.5798 52.539C-32.0646 52.6998 -31.5926 52.8849 -31.1376 53.1752C-26.3526 56.1631 -21.7204 59.6664 -16.8424 62.4791C-8.73618 67.153 -0.946249 72.3096 7.24148 76.8368C8.55562 77.5635 9.78143 78.3747 11.1263 79.0735Z" fill="white"/>
        <path d="M49.4516 62.3476L49.5958 62.325C50.3284 62.7845 51.4311 64.3693 51.9945 65.1239C51.4916 65.349 50.1545 66.3953 49.5349 66.7938C48.4251 67.5072 46.6932 68.2789 45.7427 69.0637C46.3819 70.1319 46.7108 70.885 46.9644 72.1236C49.0933 82.5246 38.4752 90.8538 29.6802 83.2677C27.863 81.6298 27.1833 80.3582 26.4048 78.0631C25.5059 78.228 24.5494 78.9463 23.8449 78.8738C22.6546 78.7513 22.9647 77.4629 23.7808 76.961C26.3599 75.3737 29.0095 73.9365 31.6209 72.4136C37.487 68.9933 43.3436 65.3163 49.4516 62.3476Z" fill="black"/>
        <path d="M5.65332 84.9228C6.32937 84.8238 8.33698 84.6289 8.5675 85.4207C8.30105 86.0022 7.51805 86.1835 6.90364 86.4172C6.27224 86.6899 5.63928 87.0747 4.99477 86.9798C4.70396 86.8308 4.65082 86.6143 4.50613 86.3114C4.85404 85.6017 4.94385 85.3051 5.65332 84.9228Z" fill="white"/>
    </g>
    <g clip-path="url(#clip1_447_3476)">
        <rect x="86.9019" y="11.7939" width="123.89" height="124" rx="15.858" transform="rotate(-2.5625 86.9019 11.7939)" fill="black"/>
        <path d="M225.919 19.4821C227.689 19.1305 229.82 19.2937 231.67 19.8351C232.411 20.0518 232.716 20.4843 233.109 20.9763L233.119 21.3168C240.541 22.4055 243.929 24.1356 249.835 27.8155C251.081 28.5917 251.869 29.4651 253.372 29.8808C253.676 30.1619 253.663 30.1449 253.776 30.4772C253.503 30.9653 252.712 30.8802 252.03 30.7453L251.74 31.0659C255.391 33.4089 258.576 35.2744 260.729 38.4416C263.081 41.9017 263.749 44.6483 264.323 48.2778C264.44 48.3272 265.113 48.5902 265.169 48.5283C266.503 47.0376 267.079 46.3574 269.514 45.6188C272.246 44.4865 277.932 42.8012 281.15 42.4503C285.549 41.5887 290.747 42.2179 295.001 43.9021C297.645 44.9493 299.211 45.5207 301.273 47.1177C304.582 49.1717 306.815 52.8538 307.309 55.7407C307.452 56.5629 307.491 57.3839 307.426 58.1943C307.336 59.3122 306.771 60.0585 307.756 61.0439C307.884 62.0245 307.458 65.3731 306.927 66.2854C305.098 69.4291 302.824 72.8575 300.474 75.8127C299.466 77.0798 298.09 78.1002 297.085 79.3665C293.644 83.3033 290.58 86.8672 286.083 90.2589C283.926 91.8797 281.617 93.3978 279.17 94.8062C277.543 95.7335 275.851 96.5572 274.279 97.5334L252.968 110.934L252.388 111.373C251.657 112.271 250.249 113.034 249.843 113.654C249.521 114.085 249.491 114.101 248.899 114.329L248.807 114.613C247.877 114.782 247.901 114.687 247.686 115.385C247.473 115.964 247.392 115.691 246.699 115.815C245.921 116.673 244.547 117.764 243.416 118.419C242.99 118.965 241.968 119.662 241.409 120.248C240.265 121.451 239.338 123.074 237.788 124.005L238.064 122.388C237.43 122.314 236.757 122.227 236.125 122.163C236.113 121.574 236.065 121.02 236.013 120.428C235.792 120.865 235.356 122.111 234.686 122.136C234.158 121.779 232.334 118.041 231.819 117.134C231.193 117.428 230.79 117.792 230.147 117.899C229.352 120.658 228.584 121.45 226.892 123.693C223.96 127.58 220.182 129.835 216.013 132.988C215.515 132.872 215.003 132.747 214.503 132.643C214.6 132.036 214.727 131.372 214.799 130.766C214.354 130.366 213.612 129.726 213.221 129.314C213.26 128.167 213.348 127.088 213.15 125.929C212.475 126.757 209.973 127.533 208.594 128.257C207.664 128.252 206.062 128.177 205.114 128.047C204.272 129.119 200.646 128.645 199.173 128.346C197.433 128.082 195.568 127.742 193.824 127.447C192.065 127.283 190.413 127.363 188.719 127.242C186.018 127.048 183.383 127.103 180.717 126.966C180.244 127.015 179.606 127.104 179.135 127.078C178.478 127.073 178.212 127.092 177.551 126.965L175.808 126.801L175.658 126.802C175.086 126.814 175.163 126.811 174.671 126.893C173.058 127.164 170.671 126.701 169.014 126.433C166.405 126.052 163.799 125.653 161.196 125.239L159.005 124.93C157.889 124.832 157.464 124.69 156.64 125.086L154.159 124.792C151.966 124.494 149.775 124.172 147.588 123.827C146.939 123.767 145.746 123.561 145.06 123.457L144.708 123.423C144.232 123.384 143.336 123.238 142.94 123.246C139.741 123.315 136.651 122.866 133.456 122.378C132.654 122.256 131.26 122.114 130.497 121.91C125.122 121.166 119.554 120.217 114.17 119.41C112.489 119.157 108.586 118.707 107.267 118.368C102.449 117.13 97.7244 115.423 92.8323 114.198C91.9257 114.157 88.2356 113.52 87.4454 113.146C87.1811 112.818 87.1325 112.741 86.686 112.531C86.4665 111.235 87.5593 113.782 86.686 112.531C85.4537 115.129 84.3795 110.553 85.5135 113.194C85.8529 113.345 85.9212 113.337 86.2974 113.397C86.3809 113.641 86.3872 113.522 86.2246 113.757C85.8458 113.813 85.7136 113.788 85.3234 113.756L85.1929 113.864C85.3931 114.071 85.7106 114.117 86.0568 114.213C85.8989 114.291 83.7161 114.039 83.0847 114.049L82.602 114.079C82.4781 114.2 82.4047 114.271 82.2415 114.369L82.0997 114.354C81.3856 114.382 80.8621 114.302 80.1481 114.218L79.1573 116.108C75.2137 112.836 71.6402 106.615 68.3233 102.795C66.4803 104.237 62.7593 105.536 61.9623 106.982C60.4861 103.564 59.4429 100.096 58.8455 96.6181C57.9148 93.1935 60.3767 87.7198 59.8286 84.4478C58.5262 84.9825 56.151 87.9985 55.0599 89.0108C53.7161 87.4751 54.0569 86.6177 54.2417 85.0471C54.6316 81.7329 57.6965 79.6832 60.5251 77.3915C61.0993 76.9261 62.0721 76.7009 62.6844 76.1723C60.9924 75.3945 57.5941 77.6546 56.4191 76.7906C56.0486 74.7205 64.0442 71.0564 66.2593 70.0802C65.719 69.9113 63.6573 69.3726 63.4542 69.1706C63.7316 69.1474 64.0095 69.1261 64.2879 69.1068C64.4531 68.8244 64.4948 68.669 64.8438 68.4921C65.3191 68.5566 65.8132 68.6031 66.1385 68.344C65.8006 68.1897 65.8373 68.2653 65.7231 68.0824C66.6155 67.8545 66.9013 67.8164 67.5194 67.3085L67.6026 67.2389C67.7902 65.6412 67.8066 64.5832 68.8798 63.2116C70.2115 57.6914 72.7541 52.6949 76.7296 48.0172C77.3221 47.32 78.6805 46.1849 78.7925 45.3958C78.6476 45.0433 78.3811 44.9402 77.9489 44.6743C75.8552 47.5772 72.0434 50.3046 68.93 52.6696C67.6934 53.609 66.0522 54.702 65.0591 55.7506C64.4257 55.7728 64.1346 55.9394 63.7433 55.8826L63.719 55.7188C63.37 55.4208 63.3403 55.375 62.8907 55.1723C60.4718 57.3393 57.2667 59.0025 53.5491 60.0204C52.8866 60.2057 53.0295 60.1346 52.8401 60.5354C52.4932 60.5443 51.606 60.3974 51.21 60.3421C51.4965 59.5588 51.5355 59.0047 51.5593 58.1834C51.508 58.0593 51.5369 58.1081 51.4539 57.9896L51.191 57.6148C50.061 56.0147 51.7221 52.997 51.4148 51.1954C51.2653 50.3189 51.0209 49.4827 50.8504 48.6222C50.4791 47.1824 50.4974 45.5156 50.0383 44.106C49.2232 41.6032 48.9503 39.6328 48.7833 37.1406C48.6375 35.146 48.54 33.1536 48.4912 31.1645C47.5189 32.5533 46.8491 34.022 45.7953 35.41C45.6751 34.8257 45.6307 34.486 45.6024 33.9035C44.364 33.3932 45.2328 30.2383 45.2968 29.3628C45.3617 28.4749 45.9268 27.5396 46.654 26.8573C48.015 24.8152 48.704 23.4518 50.4242 21.4526C55.0761 15.9261 61.814 11.9915 69.647 8.75432C77.4331 5.53656 85.9914 2.17235 95.9583 3.0703C98.8658 3.20808 101.893 3.34627 104.364 4.83316C112.273 9.59217 117.599 16.0677 122.768 22.1775C127.246 21.275 141.265 19.5984 145.671 20.9895C145.599 20.6315 145.763 20.564 145.516 20.1422C145.287 19.7515 145.169 19.6958 145.271 19.3623C145.777 19.2462 146.618 19.4296 147.217 19.5182C147.51 19.4159 148.242 19.5612 148.604 19.6183C148.705 19.533 148.789 19.4596 148.884 19.3733C152.292 19.2002 153.21 20.3371 155.647 20.7381L155.874 20.7743L156.646 20.8992L157.006 20.881L157.032 20.7557C156.262 19.539 153.863 16.824 152.499 15.8882C158.938 15.2429 163.408 19.0939 168.444 21.5771C169.217 21.9583 170.431 23.3606 171.296 23.2014C171.518 22.7343 171.529 21.7726 171.565 21.2307C173.417 21.9386 175.154 23.0657 176.004 24.4253C177.699 24.7811 179.614 25.009 181.309 25.3706C184.568 26.0661 188.284 27.1387 191.367 28.2241C193.899 29.1156 196.572 30.5419 199.029 31.48C199.525 31.1719 200.57 30.261 200.979 29.8526C202.767 28.0684 204.956 27.1435 207.329 25.8125C212.938 22.6678 218.12 19.7875 225.919 19.4821ZM115.813 98.2278C115.606 98.4234 115.204 98.772 115.068 98.9775L115.117 98.9924C115.415 99.2789 115.068 99.8592 115.197 100.452C115.526 99.7053 115.596 99.0074 115.813 98.2278Z" fill="#F2297A"/>
        <path d="M115.813 98.2278C115.606 98.4234 115.204 98.772 115.068 98.9775L115.117 98.9924C115.415 99.2789 115.068 99.8592 115.197 100.452C115.526 99.7053 115.596 99.0074 115.813 98.2278Z" fill="#F2297A"/>
        <path d="M150.877 72.8196C152.291 71.959 154.631 70.0358 156.01 68.9716L164.253 62.6506C172.302 56.4065 180.59 50.2728 188.746 44.1534C189.493 43.5934 190.656 42.5316 191.393 42.1202C192.021 42.2334 192.393 42.6524 192.769 43.1404C196.486 47.9576 199.483 53.4538 200.582 59.4659C200.66 59.7408 200.722 59.9659 200.781 60.245C200.929 60.2757 201.043 60.304 201.174 60.3786C201.409 61.5346 201.788 66.4594 201.301 67.3512C201.115 67.4704 201.034 67.4957 200.95 67.7046C200.457 75.0476 196.373 83.6176 190.775 88.3809C187.722 90.9791 182.774 94.1422 178.956 95.3587C178.898 94.9804 178.742 93.7787 178.572 93.4848C178.486 94.0847 178.581 94.753 178.642 95.363L178.591 95.2524C178.285 94.5856 178.159 93.8116 177.859 93.3008L177.737 93.3102C177.674 93.7421 177.69 94.1832 177.569 94.6049C176.958 96.7374 175.03 99.1223 173.265 100.428C171.472 101.754 169.671 102.014 167.495 101.683C163.78 101.118 156.881 98.0405 154.634 94.9008C153.906 93.8847 153.459 92.43 153.678 91.1791C153.781 90.5932 154.07 90.1796 154.567 89.8599C155.321 89.3725 156.148 89.0007 156.896 88.5018C159.01 87.0935 161.113 84.7577 161.709 82.2214C162 80.98 161.887 79.6242 161.204 78.5285C160.211 76.9332 158.478 75.9091 156.673 75.5215C152.965 74.7262 146.892 75.2769 143.743 77.3207C142.599 78.0621 141.524 79.1697 141.215 80.5385C140.884 82.0045 141.481 83.5439 142.275 84.7563C145.01 88.9316 150.054 89.457 150.994 90.7012C151.489 91.3566 151.31 92.9945 151.154 93.7674C150.981 94.6244 150.631 95.3922 150.128 96.105C148.747 98.0618 145.371 100.71 143.341 102.035C141.116 103.487 138.337 104.939 135.618 104.355C133.025 103.798 130.23 102.449 128.743 100.164C127.632 98.4579 127.09 96.6029 126.687 94.6326C126.472 94.7669 126.471 94.9319 126.351 95.224C126.235 95.4648 126.006 95.9002 125.942 96.1378C125.788 96.7495 125.776 97.7643 125.746 98.4235C121.718 97.724 120.186 96.7763 116.715 94.9522C108.664 90.7222 103.324 83.2495 101.665 74.3455C100.203 66.4979 101.922 59.37 104.663 52.04C105.41 50.0524 106.403 48.2284 107.171 46.2851C107.686 46.4459 108.158 46.631 108.613 46.9213C113.398 49.9092 118.03 53.4125 122.908 56.2251C131.014 60.8991 138.804 66.0557 146.992 70.5829C148.306 71.3096 149.532 72.1208 150.877 72.8196Z" fill="white"/>
        <path d="M189.202 56.0937L189.346 56.0711C190.079 56.5306 191.182 58.1154 191.745 58.87C191.242 59.0951 189.905 60.1414 189.285 60.5399C188.176 61.2533 186.444 62.025 185.493 62.8098C186.132 63.878 186.461 64.6311 186.715 65.8697C188.844 76.2707 178.226 84.5999 169.431 77.0138C167.613 75.3759 166.934 74.1043 166.155 71.8092C165.256 71.9741 164.3 72.6924 163.595 72.6199C162.405 72.4974 162.715 71.209 163.531 70.7071C166.11 69.1198 168.76 67.6826 171.371 66.1597C177.238 62.7394 183.094 59.0624 189.202 56.0937Z" fill="black"/>
        <path d="M110.932 59.6396L110.786 59.63C110.097 60.1531 109.141 61.8301 108.647 62.632C109.168 62.8112 110.593 63.7339 111.246 64.0755C112.415 64.6869 114.209 65.3008 115.226 65.9976C114.684 67.1186 114.424 67.8981 114.282 69.1543C113.091 79.7039 124.411 87.0514 132.493 78.71C134.156 76.9162 134.72 75.589 135.29 73.2335C136.2 73.3175 137.217 73.9475 137.912 73.8123C139.087 73.584 138.663 72.3285 137.805 71.9015C135.095 70.5509 132.327 69.3561 129.59 68.0726C123.442 65.19 117.28 62.0509 110.932 59.6396Z" fill="black"/>
        <path d="M145.404 78.6708C146.08 78.5718 148.087 78.3769 148.318 79.1688C148.052 79.7502 147.269 79.9316 146.654 80.1652C146.023 80.438 145.39 80.8227 144.745 80.7279C144.454 80.5789 144.401 80.3623 144.257 80.0595C144.605 79.3497 144.694 79.0531 145.404 78.6708Z" fill="white"/>
    </g>
    <g clip-path="url(#clip2_447_3476)">
        <rect x="226.652" y="5.53997" width="123.89" height="124" rx="15.858" transform="rotate(-2.5625 226.652 5.53997)" fill="black"/>
        <path d="M323.385 -8.6213C324.57 -9.98257 326.357 -11.1581 328.151 -11.8617C328.87 -12.1436 329.376 -11.9882 329.987 -11.8394L330.202 -11.5755C336.741 -15.2567 340.478 -15.9611 347.399 -16.6632C348.86 -16.8116 350.016 -16.6025 351.46 -17.1937C351.872 -17.1569 351.851 -17.1627 352.143 -16.9685C352.226 -16.4156 351.548 -15.9989 350.925 -15.6877L350.892 -15.2567C355.212 -15.637 358.872 -16.1102 362.511 -14.9215C366.485 -13.6224 368.692 -11.8579 371.364 -9.33739C371.486 -9.36969 372.179 -9.57342 372.186 -9.65686C372.331 -11.653 372.371 -12.5436 373.846 -14.6183C375.316 -17.1861 378.786 -21.9996 381.117 -24.2462C384.071 -27.6203 388.569 -30.3036 392.963 -31.5741C395.696 -32.364 397.283 -32.8698 399.891 -32.8681C403.763 -33.2676 407.78 -31.7208 409.935 -29.7386C410.55 -29.1755 411.082 -28.5494 411.526 -27.8685C412.137 -26.9284 412.146 -25.992 413.528 -25.8154C414.228 -25.1174 415.937 -22.2073 416.074 -21.1605C416.547 -17.5531 416.842 -13.4485 416.789 -9.67182C416.765 -8.0523 416.3 -6.40267 416.278 -4.78555C415.96 0.435903 415.713 5.13116 414.227 10.5669C413.51 13.1699 412.611 15.7843 411.535 18.3961C410.815 20.1254 409.979 21.8129 409.332 23.5475L400.656 47.1941L400.466 47.8961C400.435 49.0539 399.788 50.5197 399.845 51.2588C399.853 51.7965 399.84 51.8278 399.511 52.3703L399.611 52.6517C398.979 53.3548 398.94 53.2652 399.196 53.9486C399.381 54.537 399.15 54.3712 398.678 54.8933C398.586 56.0478 398.165 57.7525 397.671 58.9629C397.668 59.6553 397.285 60.8328 397.2 61.6385C397.03 63.2907 397.288 65.1419 396.63 66.8275L395.861 65.3785C395.314 65.7077 394.728 66.0518 394.189 66.3872C393.819 65.9286 393.443 65.5192 393.04 65.0831C393.133 65.5637 393.548 66.8168 393.034 67.2466C392.398 67.287 388.671 65.4453 387.71 65.0429C387.394 65.6588 387.298 66.1937 386.854 66.672C387.91 69.3419 387.786 70.4383 387.818 73.2492C387.873 78.1195 386.262 82.2154 384.889 87.2617C384.424 87.4746 383.942 87.6891 383.484 87.9134C383.189 87.3729 382.884 86.7701 382.571 86.2464C381.974 86.2021 380.997 86.15 380.435 86.0633C379.765 85.1318 379.176 84.2235 378.311 83.4281C378.283 84.497 376.778 86.6416 376.128 88.0584C375.389 88.6237 374.076 89.5443 373.246 90.0221C373.235 91.3855 370.076 93.2295 368.728 93.8942C367.19 94.7503 365.507 95.6231 363.947 96.4562C362.455 97.4034 361.197 98.478 359.782 99.4185C357.527 100.918 355.476 102.574 353.282 104.097C352.939 104.426 352.488 104.886 352.099 105.154C351.576 105.552 351.377 105.73 350.777 106.034L349.297 106.97L349.179 107.064C348.735 107.423 348.793 107.373 348.454 107.74C347.343 108.941 345.172 110.036 343.697 110.838C341.4 112.133 339.094 113.412 336.782 114.677L334.859 115.774C333.917 116.379 333.493 116.526 333.084 117.344L330.941 118.63C329.023 119.736 327.093 120.822 325.152 121.888C324.602 122.238 323.532 122.805 322.926 123.142L322.626 123.331C322.226 123.591 321.428 124.024 321.12 124.272C318.631 126.285 315.911 127.82 313.085 129.39C312.376 129.784 311.187 130.525 310.458 130.83C305.751 133.531 300.766 136.188 296.012 138.844C294.528 139.673 291.164 141.706 289.914 142.244C285.345 144.213 280.564 145.753 275.945 147.778C275.202 148.3 271.893 150.054 271.04 150.242C270.63 150.144 270.545 150.113 270.063 150.22C269.098 149.329 271.519 150.676 270.063 150.22C270.675 153.03 267.03 150.067 269.541 151.462C269.901 151.374 269.951 151.326 270.285 151.143C270.5 151.285 270.433 151.188 270.447 151.473C270.182 151.749 270.062 151.81 269.734 152.024L269.696 152.189C269.981 152.23 270.26 152.072 270.593 151.936C270.516 152.095 268.635 153.231 268.141 153.625L267.778 153.944C267.753 154.116 267.739 154.217 267.67 154.395L267.548 154.469C267 154.928 266.537 155.186 265.921 155.556L266.291 157.658C261.172 157.482 254.544 154.747 249.586 153.753C249.009 156.022 246.858 159.328 247.111 160.959C243.855 159.159 240.911 157.053 238.314 154.666C235.485 152.525 234.089 146.687 231.656 144.433C230.953 145.654 230.916 149.494 230.671 150.963C228.669 150.57 228.415 149.683 227.602 148.327C225.886 145.465 227.059 141.968 227.897 138.423C228.067 137.704 228.699 136.93 228.86 136.137C227.047 136.557 225.738 140.425 224.281 140.461C222.723 139.049 226.811 131.256 227.967 129.128C227.437 129.325 225.476 130.161 225.192 130.125C225.397 129.937 225.604 129.75 225.813 129.565C225.771 129.24 225.709 129.091 225.877 128.738C226.293 128.498 226.712 128.232 226.811 127.828C226.45 127.913 226.525 127.95 226.323 127.876C226.889 127.149 227.092 126.944 227.271 126.164L227.294 126.058C226.467 124.679 225.833 123.831 225.845 122.089C223.526 116.906 222.485 111.396 222.773 105.261C222.816 104.347 223.198 102.618 222.804 101.925C222.474 101.734 222.2 101.816 221.696 101.87C221.813 105.448 220.463 109.939 219.444 113.716C219.04 115.216 218.409 117.086 218.264 118.523C217.776 118.929 217.647 119.239 217.303 119.433L217.184 119.318C216.726 119.296 216.674 119.278 216.195 119.393C215.605 122.588 214.085 125.866 211.765 128.946C211.354 129.498 211.424 129.355 211.519 129.788C211.25 130.007 210.458 130.434 210.111 130.632C209.859 129.837 209.551 129.375 209.068 128.71C208.952 128.643 209.005 128.664 208.866 128.621L208.43 128.486C206.558 127.911 206.029 124.506 204.685 123.269C204.031 122.667 203.327 122.155 202.666 121.578C201.493 120.666 200.489 119.336 199.265 118.501C197.091 117.019 195.671 115.627 194.017 113.757C192.683 112.268 191.388 110.751 190.135 109.207C190.214 110.901 190.581 112.473 190.595 114.216C190.143 113.828 189.9 113.586 189.522 113.142C188.231 113.496 186.991 110.468 186.506 109.736C186.015 108.994 185.891 107.908 186.05 106.923C185.879 104.474 185.591 102.973 185.731 100.339C186.036 93.1184 188.963 85.8813 193.183 78.5259C197.378 71.2146 202.094 63.3148 210.529 57.9258C212.914 56.2555 215.393 54.5124 218.257 54.1767C227.422 53.1022 235.592 54.9672 243.415 56.639C246.407 53.1839 256.474 43.2781 260.811 41.6824C260.535 41.4429 260.624 41.2892 260.171 41.1066C259.751 40.9374 259.624 40.9656 259.5 40.6395C259.83 40.2379 260.607 39.8682 261.135 39.5719C261.304 39.3117 261.973 38.9785 262.294 38.8019C262.321 38.6732 262.343 38.5635 262.366 38.437C264.956 36.2146 266.377 36.5522 268.551 35.3782L268.752 35.2679L269.439 34.8943L269.713 34.6598L269.657 34.5447C268.305 34.0528 264.748 33.3729 263.097 33.4669C267.797 29.0158 273.687 29.3273 279.188 28.2106C280.033 28.0391 281.85 28.4059 282.437 27.7507C282.328 27.2449 281.749 26.4773 281.446 26.0265C283.344 25.453 285.407 25.2823 286.91 25.8377C288.469 25.0822 290.123 24.0905 291.685 23.3394C294.689 21.8952 298.284 20.4696 301.387 19.4419C303.935 18.598 306.921 18.0909 309.438 17.3295C309.642 16.7821 309.913 15.4217 309.987 14.848C310.312 12.3419 311.479 10.2705 312.543 7.76495C315.06 1.84377 317.4 -3.60659 323.385 -8.6213ZM284.372 121.076C284.327 121.358 284.222 121.88 284.241 122.125L284.288 122.107C284.699 122.152 284.779 122.823 285.243 123.213C285.047 122.421 284.676 121.826 284.372 121.076Z" fill="#F24729"/>
        <path d="M284.372 121.076C284.327 121.358 284.222 121.88 284.241 122.125L284.288 122.107C284.699 122.152 284.779 122.823 285.243 123.213C285.047 122.421 284.676 121.826 284.372 121.076Z" fill="#F24729"/>
        <path d="M290.628 66.5657C292.041 65.7051 294.382 63.7819 295.761 62.7177L304.004 56.3967C312.053 50.1526 320.341 44.0189 328.497 37.8995C329.244 37.3395 330.407 36.2777 331.144 35.8663C331.771 35.9795 332.143 36.3985 332.52 36.8865C336.237 41.7037 339.233 47.1999 340.333 53.212C340.411 53.4869 340.473 53.7119 340.532 53.9911C340.679 54.0218 340.793 54.0501 340.925 54.1247C341.159 55.2807 341.539 60.2055 341.052 61.0973C340.866 61.2165 340.785 61.2418 340.701 61.4507C340.208 68.7937 336.124 77.3637 330.526 82.127C327.473 84.7251 322.525 87.8883 318.707 89.1048C318.649 88.7265 318.492 87.5248 318.323 87.2309C318.236 87.8308 318.332 88.4991 318.393 89.1091L318.342 88.9985C318.036 88.3317 317.91 87.5577 317.61 87.0469L317.488 87.0562C317.425 87.4882 317.44 87.9293 317.32 88.351C316.709 90.4835 314.781 92.8684 313.016 94.1737C311.223 95.5 309.422 95.7603 307.246 95.4295C303.531 94.8643 296.632 91.7866 294.384 88.6469C293.657 87.6308 293.21 86.1761 293.429 84.9252C293.532 84.3393 293.821 83.9257 294.318 83.606C295.072 83.1186 295.898 82.7468 296.646 82.2479C298.76 80.8396 300.864 78.5038 301.459 75.9675C301.751 74.7261 301.637 73.3703 300.955 72.2746C299.961 70.6793 298.229 69.6552 296.424 69.2676C292.715 68.4723 286.643 69.023 283.493 71.0668C282.35 71.8082 281.275 72.9158 280.966 74.2846C280.635 75.7506 281.232 77.29 282.026 78.5024C284.761 82.6777 289.805 83.2031 290.745 84.4473C291.239 85.1027 291.061 86.7406 290.904 87.5135C290.732 88.3705 290.382 89.1383 289.879 89.8511C288.498 91.8079 285.121 94.4559 283.092 95.781C280.867 97.2336 278.088 98.6854 275.369 98.1012C272.776 97.5436 269.981 96.1949 268.494 93.9099C267.383 92.204 266.841 90.349 266.437 88.3787C266.223 88.513 266.221 88.678 266.101 88.9701C265.986 89.2109 265.757 89.6463 265.693 89.8838C265.539 90.4956 265.526 91.5104 265.496 92.1696C261.469 91.4701 259.937 90.5224 256.466 88.6983C248.415 84.4683 243.075 76.9956 241.416 68.0916C239.954 60.244 241.673 53.1161 244.413 45.7861C245.16 43.7985 246.154 41.9745 246.921 40.0312C247.437 40.192 247.909 40.3771 248.364 40.6674C253.149 43.6553 257.781 47.1586 262.659 49.9712C270.765 54.6452 278.555 59.8018 286.743 64.329C288.057 65.0557 289.283 65.8669 290.628 66.5657Z" fill="white"/>
        <path d="M328.953 49.8398L329.097 49.8172C329.83 50.2767 330.933 51.8615 331.496 52.6161C330.993 52.8411 329.656 53.8875 329.036 54.286C327.927 54.9994 326.195 55.7711 325.244 56.5559C325.883 57.6241 326.212 58.3772 326.466 59.6158C328.595 70.0168 317.977 78.346 309.182 70.7599C307.364 69.122 306.685 67.8504 305.906 65.5553C305.007 65.7202 304.051 66.4385 303.346 66.366C302.156 66.2435 302.466 64.9551 303.282 64.4532C305.861 62.8659 308.511 61.4287 311.122 59.9058C316.988 56.4855 322.845 52.8085 328.953 49.8398Z" fill="black"/>
        <path d="M250.683 53.3857L250.537 53.3761C249.848 53.8992 248.892 55.5762 248.398 56.3781C248.919 56.5573 250.344 57.48 250.997 57.8216C252.166 58.433 253.96 59.0469 254.977 59.7437C254.435 60.8647 254.175 61.6441 254.033 62.9004C252.842 73.45 264.162 80.7975 272.244 72.456C273.907 70.6623 274.471 69.3351 275.041 66.9796C275.951 67.0636 276.968 67.6936 277.663 67.5584C278.838 67.3301 278.414 66.0746 277.556 65.6476C274.846 64.297 272.078 63.1022 269.341 61.8187C263.193 58.9361 257.031 55.797 250.683 53.3857Z" fill="black"/>
        <path d="M285.155 72.415C285.831 72.316 287.838 72.1211 288.069 72.9129C287.803 73.4944 287.02 73.6757 286.405 73.9094C285.774 74.1821 285.141 74.5669 284.496 74.472C284.205 74.323 284.152 74.1064 284.008 73.8036C284.356 73.0939 284.445 72.7972 285.155 72.415Z" fill="white"/>
    </g>
    <defs>
        <clipPath id="clip0_447_3476">
            <rect x="-52.8486" y="18.0478" width="123.89" height="124" rx="15.858" transform="rotate(-2.5625 -52.8486 18.0478)" fill="white"/>
        </clipPath>
        <clipPath id="clip1_447_3476">
            <rect x="86.9019" y="11.7939" width="123.89" height="124" rx="15.858" transform="rotate(-2.5625 86.9019 11.7939)" fill="white"/>
        </clipPath>
        <clipPath id="clip2_447_3476">
            <rect x="226.652" y="5.53997" width="123.89" height="124" rx="15.858" transform="rotate(-2.5625 226.652 5.53997)" fill="white"/>
        </clipPath>
    </defs>
</svg>
